<svg id="svg" version="1.1" xmlns="http://www.w3.org/2000/svg" xmlns:xlink="http://www.w3.org/1999/xlink" width="400" height="400" viewBox="0, 0, 400,400"><g id="svgg"><path id="path0" d="M38.800 192.600 C 38.800 224.613,38.874 229.200,39.391 229.200 C 39.716 229.200,40.276 229.650,40.637 230.200 C 40.997 230.750,41.532 231.200,41.826 231.200 C 42.120 231.200,42.504 231.425,42.680 231.700 C 42.856 231.975,44.080 233.095,45.400 234.189 C 46.720 235.283,48.573 236.948,49.519 237.889 C 50.464 238.830,51.403 239.600,51.605 239.600 C 51.807 239.600,52.169 239.969,52.410 240.419 C 52.651 240.870,53.288 241.405,53.824 241.609 C 54.361 241.813,54.800 242.226,54.800 242.526 C 54.800 243.998,57.418 244.171,79.363 244.141 C 104.548 244.106,106.611 243.981,108.652 242.359 C 109.454 241.721,110.326 241.200,110.591 241.200 C 110.855 241.200,111.277 240.750,111.527 240.200 C 111.778 239.650,112.234 239.200,112.541 239.200 C 112.849 239.200,113.207 238.666,113.338 238.013 C 113.468 237.359,113.986 236.414,114.488 235.913 L 115.400 235.000 115.515 205.034 L 115.629 175.068 114.336 173.734 C 113.625 173.000,112.821 172.400,112.550 172.400 C 112.279 172.400,111.756 172.099,111.387 171.730 C 111.019 171.362,110.066 170.955,109.270 170.825 C 108.017 170.622,107.767 170.392,107.409 169.116 C 107.182 168.305,106.592 167.265,106.098 166.805 C 105.604 166.345,105.200 165.723,105.200 165.422 C 105.200 165.065,104.473 164.778,103.100 164.594 C 100.657 164.268,99.752 163.605,99.369 161.859 C 99.217 161.166,98.667 159.973,98.146 159.207 C 97.626 158.441,97.200 157.611,97.200 157.362 C 97.200 156.205,92.469 156.000,65.733 156.000 L 38.800 156.000 38.800 192.600 M93.301 158.054 C 93.768 158.304,94.341 158.670,94.575 158.868 C 94.809 159.065,95.360 159.477,95.800 159.781 C 96.698 160.403,97.248 219.198,96.386 222.435 C 95.740 224.861,96.469 224.800,67.971 224.800 L 41.980 224.800 41.582 223.752 C 40.732 221.517,41.284 159.412,42.162 158.442 C 43.062 157.448,91.482 157.080,93.301 158.054 M102.731 167.200 C 102.989 167.200,103.560 167.560,104.000 168.000 C 104.880 168.880,105.290 225.511,104.433 227.674 C 103.554 229.890,100.666 232.482,98.595 232.913 C 95.832 233.488,51.207 233.767,50.653 233.213 C 50.426 232.986,49.766 232.800,49.186 232.800 C 48.069 232.800,45.200 230.051,45.200 228.981 C 45.200 227.684,46.750 227.600,70.548 227.600 C 96.735 227.600,95.738 227.698,97.665 224.923 L 99.000 223.000 99.200 195.342 C 99.392 168.820,99.431 167.649,100.165 166.839 C 100.852 166.080,100.998 166.055,101.596 166.597 C 101.963 166.929,102.474 167.200,102.731 167.200 M63.795 167.683 C 62.876 168.252,61.916 168.405,59.641 168.348 C 56.767 168.276,56.653 168.310,55.641 169.540 C 55.069 170.237,54.234 170.806,53.788 170.804 C 53.191 170.801,52.819 171.248,52.388 172.487 C 51.882 173.938,51.590 174.224,50.297 174.527 C 49.124 174.803,48.746 175.113,48.574 175.940 C 48.211 177.676,47.792 178.169,46.442 178.445 C 44.727 178.796,44.625 178.961,45.393 180.133 C 46.217 181.391,46.283 184.213,45.508 185.116 C 44.372 186.441,44.386 187.157,45.576 188.512 C 48.823 192.209,73.018 216.000,73.532 216.000 C 73.861 216.000,75.086 215.698,76.255 215.330 C 77.942 214.798,78.672 214.749,79.790 215.093 C 81.715 215.683,82.705 215.344,83.002 213.990 C 83.173 213.214,83.616 212.733,84.421 212.453 C 85.155 212.197,85.845 211.513,86.270 210.622 C 86.765 209.584,87.204 209.200,87.894 209.200 C 88.589 209.200,88.989 208.845,89.397 207.868 C 90.084 206.225,90.722 205.676,92.314 205.357 L 93.553 205.109 92.752 203.078 C 91.875 200.853,91.984 199.730,93.242 198.028 C 94.038 196.953,93.991 194.800,93.173 194.800 C 92.986 194.800,86.568 188.532,78.912 180.872 L 64.990 166.944 63.795 167.683 M65.300 171.770 C 65.918 171.908,66.400 172.285,66.400 172.631 C 66.400 172.995,66.589 173.130,66.862 172.962 C 67.143 172.788,67.215 172.852,67.047 173.124 C 66.687 173.706,68.294 175.313,68.876 174.953 C 69.148 174.785,69.212 174.857,69.038 175.138 C 68.868 175.413,69.009 175.600,69.386 175.600 C 69.735 175.600,70.191 176.050,70.400 176.600 C 70.609 177.150,71.059 177.600,71.400 177.600 C 71.741 177.600,72.191 178.050,72.400 178.600 C 72.609 179.150,73.059 179.600,73.400 179.600 C 73.741 179.600,74.191 180.050,74.400 180.600 C 74.609 181.150,75.059 181.600,75.400 181.600 C 75.741 181.600,76.191 182.050,76.400 182.600 C 76.609 183.150,77.059 183.600,77.400 183.600 C 77.741 183.600,78.191 184.050,78.400 184.600 C 78.609 185.150,79.059 185.600,79.400 185.600 C 79.741 185.600,80.191 186.050,80.400 186.600 C 80.609 187.150,81.059 187.600,81.400 187.600 C 81.741 187.600,82.191 188.050,82.400 188.600 C 82.609 189.150,83.060 189.600,83.403 189.600 C 83.745 189.600,84.143 189.915,84.288 190.300 C 84.693 191.379,86.639 193.053,87.252 192.851 C 87.715 192.698,87.715 192.773,87.251 193.335 C 86.869 193.798,86.845 194.000,87.171 194.000 C 87.429 194.000,88.277 194.619,89.055 195.374 C 90.535 196.812,90.667 198.400,89.306 198.400 C 88.955 198.400,88.774 198.508,88.906 198.639 C 89.470 199.203,75.725 212.400,74.573 212.400 C 73.379 212.400,71.600 211.028,71.600 210.107 C 71.600 209.802,71.455 209.642,71.279 209.751 C 71.008 209.918,52.739 191.819,50.736 189.400 C 50.372 188.960,49.610 188.279,49.043 187.886 L 48.013 187.173 48.779 185.743 C 49.992 183.481,62.630 171.099,63.488 171.332 C 63.880 171.439,64.695 171.636,65.300 171.770 M110.911 173.966 C 112.820 174.692,112.822 174.735,112.708 205.937 L 112.600 235.271 111.752 235.958 C 111.285 236.336,110.778 237.040,110.625 237.522 C 110.471 238.005,110.184 238.400,109.987 238.400 C 109.789 238.400,109.075 238.940,108.400 239.600 C 107.683 240.301,106.747 240.800,106.149 240.800 C 105.587 240.800,104.669 241.160,104.109 241.600 C 102.559 242.819,59.256 242.856,58.039 241.639 C 57.621 241.221,56.910 240.762,56.460 240.619 C 56.009 240.476,55.520 239.963,55.373 239.480 C 55.226 238.996,54.824 238.279,54.479 237.888 C 52.707 235.871,53.254 235.817,77.986 235.600 C 98.807 235.417,100.806 235.341,101.472 234.711 C 101.872 234.332,102.965 233.349,103.900 232.527 C 104.835 231.705,105.604 230.756,105.609 230.416 C 105.614 230.077,105.970 229.350,106.400 228.800 C 107.157 227.832,107.183 226.986,107.201 202.600 C 107.223 172.599,107.227 172.566,110.911 173.966 M132.243 207.433 C 131.747 208.724,131.984 211.108,132.633 211.357 C 132.981 211.491,156.308 211.600,184.471 211.600 C 242.878 211.600,238.275 211.318,237.862 214.869 C 237.364 219.157,240.742 218.788,201.900 218.795 L 168.800 218.800 168.800 220.400 L 168.800 222.000 235.900 221.960 C 272.805 221.938,303.450 221.795,304.000 221.643 C 304.816 221.416,305.043 221.044,305.235 219.625 C 305.642 216.603,303.213 216.800,340.012 216.800 L 373.072 216.800 373.536 215.781 C 373.791 215.221,374.000 214.321,374.000 213.781 L 374.000 212.800 322.587 212.800 C 263.711 212.800,268.676 213.125,268.237 209.244 L 267.960 206.800 200.223 206.800 C 138.824 206.800,132.463 206.859,132.243 207.433 " stroke="none" fill="#54bf98" fill-rule="evenodd"></path><path id="path1" d="M0.000 200.000 L 0.000 400.000 200.000 400.000 L 400.000 400.000 400.000 200.000 L 400.000 0.000 200.000 0.000 L 0.000 0.000 0.000 200.000 M95.840 155.039 C 98.148 156.263,99.854 158.124,100.207 159.800 C 100.690 162.095,100.858 162.400,101.640 162.400 C 104.125 162.400,107.985 165.710,108.400 168.198 C 108.575 169.248,108.828 169.446,110.438 169.798 C 112.964 170.351,115.522 172.142,116.331 173.927 C 117.176 175.788,117.575 226.460,116.792 232.400 C 116.076 237.833,112.064 243.221,107.800 244.477 C 106.920 244.736,105.845 245.185,105.411 245.474 C 104.781 245.894,99.836 246.000,80.884 246.000 L 57.147 246.000 55.673 244.900 C 54.863 244.295,54.020 243.603,53.800 243.362 C 53.580 243.122,52.050 241.787,50.400 240.396 C 48.750 239.005,47.040 237.549,46.600 237.159 C 44.480 235.283,43.173 234.113,40.500 231.699 L 37.600 229.081 37.600 192.272 C 37.600 158.582,37.656 155.401,38.262 154.731 C 38.891 154.036,40.290 154.000,66.402 154.000 L 93.881 154.000 95.840 155.039 M42.610 160.458 C 42.486 160.976,42.432 175.440,42.492 192.600 L 42.600 223.800 67.406 223.767 C 94.861 223.731,94.027 223.788,94.715 221.885 C 95.183 220.589,95.402 204.743,94.935 205.900 C 94.824 206.175,94.253 206.402,93.667 206.405 C 91.693 206.416,90.959 206.824,90.575 208.125 C 90.369 208.824,89.660 209.750,89.000 210.181 C 88.340 210.612,86.721 212.176,85.403 213.655 C 82.966 216.388,81.931 216.926,80.066 216.428 C 78.863 216.106,74.783 216.660,74.220 217.221 C 73.351 218.088,72.097 216.987,58.582 203.497 C 42.132 187.077,41.907 186.749,44.833 183.447 C 45.006 183.253,44.797 182.208,44.371 181.125 C 43.425 178.726,43.777 177.806,45.786 177.429 C 46.894 177.221,47.244 176.935,47.430 176.082 C 47.852 174.152,47.937 174.051,49.539 173.571 C 50.792 173.196,51.168 172.862,51.347 171.967 C 51.474 171.331,52.060 170.527,52.686 170.130 C 53.299 169.741,54.481 168.737,55.313 167.898 C 56.742 166.457,56.874 166.407,57.702 166.986 C 58.879 167.811,61.131 167.759,62.600 166.873 C 63.260 166.475,64.125 166.027,64.523 165.878 C 65.092 165.665,68.214 168.578,79.238 179.604 C 90.051 190.420,93.454 193.600,94.215 193.600 L 95.200 193.600 95.200 178.450 C 95.200 170.118,95.094 162.771,94.965 162.124 C 94.494 159.770,95.262 159.840,67.918 159.671 L 42.836 159.516 42.610 160.458 M298.579 164.926 C 300.755 166.330,300.891 166.980,300.573 174.482 C 300.269 181.674,300.343 181.948,302.151 180.300 C 303.829 178.771,305.356 177.726,306.392 177.400 C 306.938 177.228,307.838 176.766,308.392 176.373 C 309.386 175.668,312.838 175.332,317.119 175.523 C 319.852 175.645,322.786 180.012,321.381 181.867 C 321.076 182.270,320.820 182.928,320.813 183.330 C 320.797 184.255,316.495 188.800,315.635 188.800 C 315.282 188.800,314.768 189.160,314.493 189.600 C 314.218 190.040,313.735 190.400,313.420 190.400 C 312.306 190.400,312.375 191.203,313.594 192.394 C 314.272 193.057,315.233 193.600,315.729 193.600 C 316.225 193.600,317.316 193.950,318.154 194.377 C 318.992 194.804,320.199 195.268,320.837 195.408 C 322.928 195.867,323.166 197.942,321.326 199.668 C 319.876 201.029,313.330 201.037,311.885 199.680 C 311.370 199.196,310.648 198.800,310.281 198.800 C 309.318 198.800,305.042 194.952,303.105 192.341 L 302.022 190.882 303.802 189.241 C 304.781 188.338,305.921 187.600,306.336 187.600 C 306.751 187.600,307.769 187.060,308.600 186.400 C 309.431 185.740,310.270 185.200,310.465 185.200 C 311.026 185.200,311.625 183.237,311.372 182.229 L 311.142 181.314 308.951 182.121 C 307.746 182.565,306.582 183.259,306.366 183.664 C 306.149 184.069,305.703 184.400,305.373 184.400 C 305.044 184.400,304.659 184.715,304.517 185.100 C 304.376 185.485,303.886 186.201,303.430 186.690 C 300.529 189.802,300.347 190.330,300.467 195.269 C 300.590 200.359,300.430 200.547,295.974 200.547 L 292.724 200.547 291.377 198.974 C 289.773 197.100,289.542 194.481,290.700 191.314 C 291.751 188.440,291.742 170.913,290.688 168.715 C 288.736 164.641,294.124 162.054,298.579 164.926 M249.800 164.800 C 249.936 165.020,250.352 165.203,250.724 165.206 C 253.251 165.229,253.790 170.671,251.418 172.225 C 246.876 175.201,238.894 170.135,242.477 166.551 C 243.893 165.135,249.220 163.861,249.800 164.800 M140.844 166.867 C 141.920 167.564,142.800 168.331,142.800 168.571 C 142.800 168.811,143.160 169.232,143.600 169.507 C 144.040 169.782,144.400 170.243,144.400 170.531 C 144.400 170.820,144.940 171.661,145.600 172.400 C 146.260 173.139,146.800 173.973,146.800 174.254 C 146.800 174.534,147.205 175.199,147.700 175.731 C 149.638 177.815,152.800 181.972,152.800 182.437 C 152.800 182.617,153.263 183.267,153.828 183.882 C 154.954 185.107,155.147 185.327,157.512 188.083 C 158.450 189.176,159.206 189.762,159.314 189.480 C 159.684 188.515,158.844 174.931,158.245 172.200 C 157.111 167.031,158.016 165.600,162.416 165.600 C 165.863 165.600,168.374 167.262,168.440 169.586 C 168.527 172.648,168.315 177.948,167.993 180.800 C 167.787 182.618,167.831 186.836,168.104 191.509 C 168.664 201.101,168.945 200.600,162.993 200.600 C 158.303 200.600,159.163 201.037,154.400 196.237 C 151.106 192.917,148.896 190.387,146.857 187.600 C 145.972 186.390,144.877 185.034,144.424 184.586 C 143.971 184.138,143.600 183.562,143.600 183.306 C 143.600 183.049,143.318 182.682,142.973 182.489 C 142.629 182.296,142.000 181.612,141.576 180.969 L 140.805 179.800 140.817 186.800 C 140.826 192.118,140.966 194.040,141.400 194.800 C 143.418 198.331,141.886 200.489,137.360 200.489 C 133.232 200.489,131.640 199.246,131.613 196.000 C 131.519 184.986,131.881 166.762,132.200 166.459 C 133.623 165.103,138.475 165.332,140.844 166.867 M202.900 166.057 C 203.505 166.299,204.000 166.636,204.000 166.806 C 204.000 167.576,205.237 167.458,206.438 166.572 L 207.755 165.600 222.859 165.600 C 239.516 165.600,239.824 165.640,240.081 167.841 C 240.215 168.990,240.004 169.411,238.650 170.694 L 237.063 172.200 232.149 172.415 C 229.447 172.534,227.093 172.774,226.918 172.949 C 226.743 173.124,226.608 179.281,226.618 186.632 C 226.638 202.060,227.130 200.574,222.031 200.496 C 219.112 200.451,219.034 200.422,217.431 198.815 L 215.800 197.181 215.885 193.945 C 215.932 192.165,216.271 189.694,216.639 188.454 C 217.352 186.051,217.676 173.539,217.041 172.912 C 216.868 172.740,214.026 172.600,210.727 172.600 L 204.728 172.600 203.807 171.448 C 202.928 170.347,202.875 170.333,202.624 171.123 C 202.160 172.585,200.099 172.902,192.057 172.745 L 184.600 172.600 184.600 176.000 L 184.600 179.400 192.315 179.600 C 200.899 179.823,200.970 179.847,200.656 182.492 C 200.217 186.181,197.494 187.151,189.400 186.499 C 183.960 186.061,184.294 185.594,184.594 193.235 C 184.871 200.289,184.876 200.274,181.995 200.449 C 177.957 200.694,177.095 200.478,175.241 198.757 L 173.482 197.123 173.731 192.862 C 173.868 190.518,174.255 187.556,174.590 186.280 C 175.380 183.276,175.385 176.126,174.600 173.200 C 173.439 168.874,173.856 166.297,175.775 165.943 C 177.899 165.551,201.888 165.651,202.900 166.057 M366.798 168.598 C 368.643 169.959,368.787 170.267,368.794 172.857 C 368.801 175.605,368.791 175.600,374.019 175.600 C 377.557 175.600,378.017 175.684,378.398 176.397 C 379.025 177.569,378.350 179.703,377.175 180.260 C 374.466 181.546,373.928 181.720,372.755 181.686 C 372.058 181.667,370.967 181.435,370.331 181.171 C 368.951 180.600,369.125 180.434,367.988 183.400 C 366.056 188.439,366.601 192.252,369.600 194.687 C 370.346 195.293,374.087 195.353,374.671 194.769 C 375.423 194.017,377.328 194.517,377.949 195.628 C 378.563 196.728,378.307 198.800,377.556 198.800 C 377.321 198.800,376.828 199.171,376.461 199.623 C 375.162 201.229,365.183 201.183,363.564 199.564 C 363.144 199.144,362.621 198.800,362.403 198.800 C 359.712 198.800,358.059 192.080,359.183 185.712 C 359.870 181.824,359.574 180.713,357.885 180.829 C 355.228 181.010,354.539 180.822,354.068 179.790 C 353.416 178.359,355.542 176.013,357.824 175.644 L 359.400 175.389 359.508 172.194 C 359.665 167.515,363.059 165.840,366.798 168.598 M100.709 168.135 C 100.659 168.171,100.524 180.807,100.409 196.216 L 100.200 224.233 98.826 225.968 C 96.494 228.911,97.630 228.795,70.713 228.846 C 57.451 228.872,46.901 228.972,47.269 229.070 C 47.637 229.167,48.119 229.766,48.340 230.400 C 48.920 232.063,48.773 232.054,75.000 231.920 L 98.600 231.800 100.074 230.672 C 100.885 230.052,101.965 228.792,102.474 227.872 L 103.400 226.200 103.522 199.600 C 103.662 169.220,103.658 169.148,101.981 168.515 C 101.332 168.270,100.759 168.099,100.709 168.135 M282.904 176.690 C 286.470 179.270,285.966 183.112,281.811 185.012 C 278.962 186.315,277.200 185.747,277.200 183.525 C 277.200 183.126,277.016 182.800,276.791 182.800 C 276.567 182.800,276.178 182.350,275.927 181.800 C 275.474 180.806,269.200 180.164,269.200 181.111 C 269.200 181.282,268.682 181.988,268.050 182.681 C 265.741 185.209,265.864 192.136,268.254 194.147 C 271.336 196.741,275.387 196.039,278.334 192.400 C 281.035 189.065,282.026 188.948,284.961 191.619 C 287.041 193.511,285.454 197.925,282.424 198.677 C 281.861 198.817,280.890 199.307,280.267 199.766 C 278.525 201.048,265.064 201.041,263.326 199.756 C 262.698 199.292,261.802 198.791,261.335 198.643 C 259.591 198.089,257.681 194.964,257.382 192.173 C 256.972 188.346,257.797 183.200,258.821 183.200 C 258.982 183.200,259.223 182.764,259.356 182.231 C 259.597 181.274,263.510 177.600,264.289 177.600 C 264.511 177.600,265.201 177.199,265.824 176.710 C 268.384 174.696,280.129 174.682,282.904 176.690 M345.632 175.550 C 347.577 175.871,350.800 178.082,350.800 179.096 C 350.800 179.404,351.070 179.927,351.400 180.257 C 352.086 180.943,352.213 183.821,351.575 184.215 C 351.342 184.360,350.984 184.915,350.781 185.449 C 350.578 185.983,350.094 186.539,349.706 186.684 C 349.318 186.829,348.770 187.267,348.489 187.658 C 348.207 188.048,347.307 188.476,346.489 188.608 C 345.670 188.740,344.460 189.150,343.800 189.520 C 342.910 190.018,341.334 190.229,337.700 190.337 L 332.800 190.482 332.800 191.610 C 332.800 193.755,334.948 195.343,338.101 195.530 C 341.380 195.725,342.158 195.303,344.200 192.227 C 345.902 189.662,346.672 189.312,348.598 190.226 C 352.348 192.005,352.237 196.598,348.400 198.368 C 347.630 198.723,346.468 199.370,345.818 199.807 C 344.012 201.018,331.043 201.009,329.334 199.794 C 328.710 199.351,327.750 198.756,327.200 198.471 C 320.869 195.196,323.145 179.135,330.190 177.367 C 330.745 177.227,331.200 176.975,331.200 176.805 C 331.200 175.546,340.635 174.725,345.632 175.550 M108.713 175.692 C 108.664 175.752,108.529 187.860,108.413 202.600 L 108.200 229.400 106.877 231.292 C 102.679 237.295,102.321 237.371,77.345 237.504 C 57.061 237.613,56.888 237.621,56.674 238.440 C 56.502 239.095,56.748 239.386,57.867 239.854 C 59.904 240.705,104.065 240.502,105.600 239.635 C 107.728 238.431,109.283 236.920,110.418 234.951 L 111.600 232.903 111.600 204.675 C 111.600 189.150,111.465 176.371,111.300 176.279 C 110.857 176.030,108.814 175.567,108.713 175.692 M251.491 177.011 L 252.902 178.422 252.551 183.311 C 252.358 186.000,252.258 190.732,252.329 193.827 C 252.486 200.652,252.554 200.547,247.932 200.547 L 244.724 200.547 243.377 198.974 C 241.813 197.147,241.644 195.684,242.700 193.108 C 243.455 191.265,243.711 181.932,243.100 178.529 C 242.492 175.143,248.530 174.050,251.491 177.011 M335.400 180.716 C 333.833 181.272,332.800 182.532,332.800 183.889 L 332.800 185.200 335.684 185.200 C 338.638 185.200,343.210 183.861,343.191 183.002 C 343.149 181.110,338.299 179.687,335.400 180.716 M94.745 199.900 C 94.665 200.505,94.708 201.810,94.840 202.800 C 95.048 204.364,95.088 204.220,95.140 201.700 C 95.201 198.760,95.011 197.893,94.745 199.900 M268.613 206.180 C 269.955 206.740,270.000 206.830,270.000 208.937 C 270.000 210.553,270.163 211.177,270.633 211.357 C 270.981 211.491,294.251 211.600,322.344 211.600 C 380.082 211.600,375.200 211.305,375.200 214.794 C 375.200 218.281,378.250 218.000,340.379 218.000 L 306.815 218.000 306.634 218.900 C 306.534 219.395,306.359 220.491,306.245 221.336 C 306.132 222.180,305.805 223.154,305.519 223.500 C 304.776 224.401,169.379 223.950,168.472 223.044 C 167.675 222.247,167.411 219.160,168.069 218.326 C 168.556 217.707,171.359 217.629,202.000 217.371 C 225.814 217.171,235.484 216.963,235.694 216.645 C 236.269 215.774,236.034 212.899,235.367 212.643 C 235.019 212.509,211.569 212.400,183.256 212.400 C 126.096 212.400,130.000 212.590,130.000 209.803 C 130.000 207.878,130.645 206.436,131.694 206.015 C 133.379 205.338,266.983 205.499,268.613 206.180 " stroke="none" fill="#fbfbfb" fill-rule="evenodd"></path><path id="path2" d="M292.715 166.650 C 292.609 166.843,292.681 169.880,292.875 173.400 C 293.105 177.567,293.072 182.800,292.781 188.400 L 292.334 197.000 293.652 198.100 C 296.339 200.343,300.219 198.634,298.613 195.915 C 297.586 194.176,297.640 191.583,298.733 190.194 C 299.210 189.588,299.600 188.848,299.600 188.549 C 299.600 188.251,299.960 187.782,300.400 187.507 C 300.840 187.232,301.200 186.789,301.200 186.521 C 301.200 185.903,305.937 181.200,306.558 181.200 C 306.813 181.200,307.330 180.840,307.707 180.400 C 308.405 179.585,311.322 179.265,312.204 179.906 C 313.388 180.768,314.218 183.243,313.500 183.772 C 313.115 184.056,312.800 184.555,312.800 184.882 C 312.800 185.455,311.599 186.800,311.087 186.800 C 310.949 186.800,310.386 187.250,309.836 187.800 C 309.286 188.350,308.378 188.800,307.818 188.800 C 307.211 188.800,306.800 189.027,306.800 189.361 C 306.800 189.669,306.250 190.113,305.579 190.347 C 304.556 190.704,304.422 190.893,304.753 191.512 C 305.490 192.890,311.084 197.599,311.986 197.601 C 312.324 197.602,313.189 197.962,313.910 198.401 C 315.937 199.638,318.576 199.485,320.012 198.050 L 321.162 196.899 318.758 196.627 C 317.117 196.441,316.142 196.108,315.688 195.578 C 315.322 195.150,314.591 194.800,314.065 194.800 C 313.124 194.800,309.999 191.879,310.000 191.000 C 310.001 190.569,313.821 187.600,314.376 187.600 C 315.650 187.600,319.341 182.957,319.516 181.134 C 319.876 177.388,313.204 174.796,310.406 177.594 C 309.969 178.031,308.889 178.504,308.006 178.645 C 307.020 178.803,306.400 179.118,306.400 179.461 C 306.400 179.768,305.945 180.193,305.390 180.404 C 304.834 180.615,303.295 181.691,301.969 182.794 C 299.280 185.032,299.138 185.081,298.175 184.117 C 297.335 183.278,297.610 177.309,298.596 174.948 C 299.320 173.215,299.429 167.389,298.745 166.966 C 298.034 166.527,292.932 166.259,292.715 166.650 M198.600 167.507 C 197.328 167.994,194.950 168.128,187.000 168.160 C 181.500 168.182,176.887 168.355,176.749 168.544 C 176.611 168.733,176.592 172.015,176.707 175.837 C 176.826 179.808,176.700 185.703,176.412 189.596 C 175.873 196.889,175.928 197.228,177.784 198.041 C 178.233 198.237,178.901 198.614,179.269 198.877 C 182.056 200.874,183.986 197.344,182.621 192.746 C 180.427 185.357,184.069 181.453,190.193 184.630 C 191.774 185.450,196.746 185.406,197.067 184.569 C 197.200 184.223,197.735 183.777,198.255 183.579 C 198.961 183.311,199.200 182.914,199.200 182.010 C 199.200 180.589,198.580 180.463,196.680 181.497 C 194.461 182.704,185.419 182.505,183.686 181.211 C 181.938 179.905,181.758 178.902,182.575 175.047 C 183.705 169.722,184.486 169.227,189.600 170.600 C 195.235 172.112,201.600 171.175,201.600 168.833 C 201.600 166.741,201.134 166.535,198.600 167.507 M234.800 167.317 C 234.121 167.634,229.820 167.814,221.400 167.877 C 207.426 167.983,206.740 168.077,206.362 169.926 C 206.049 171.457,207.201 171.663,209.851 170.549 C 212.099 169.605,216.947 169.583,217.883 170.513 C 218.724 171.350,219.108 183.757,218.517 191.000 C 218.062 196.582,218.212 197.155,220.436 198.338 C 225.181 200.860,226.056 198.933,224.495 189.400 C 224.254 187.931,224.236 185.758,224.447 183.800 C 224.637 182.040,224.969 178.641,225.185 176.247 C 225.753 169.937,225.863 169.818,230.854 170.145 C 236.313 170.503,238.229 169.704,237.357 167.433 C 237.075 166.698,236.212 166.659,234.800 167.317 M244.342 167.900 C 243.969 170.667,244.855 171.600,247.857 171.600 C 249.504 171.600,251.844 169.614,251.439 168.559 C 251.308 168.215,251.200 167.679,251.200 167.367 C 251.200 166.923,250.475 166.800,247.845 166.800 L 244.491 166.800 244.342 167.900 M161.810 167.494 C 160.466 167.833,160.144 168.694,160.449 171.131 C 160.903 174.764,160.854 190.751,160.386 191.626 C 159.679 192.948,158.625 192.492,156.575 189.977 C 155.489 188.644,154.285 187.177,153.900 186.716 C 153.515 186.255,153.200 185.635,153.200 185.339 C 153.200 185.042,152.924 184.800,152.587 184.800 C 152.251 184.800,151.860 184.485,151.720 184.100 C 151.580 183.715,151.000 182.835,150.433 182.144 C 149.865 181.452,148.905 180.289,148.300 179.557 C 147.695 178.826,147.200 177.907,147.200 177.514 C 147.200 177.121,146.921 176.800,146.579 176.800 C 146.238 176.800,145.770 176.260,145.540 175.600 C 145.310 174.940,144.963 174.400,144.769 174.400 C 144.575 174.400,144.045 173.673,143.592 172.783 C 143.138 171.894,142.437 170.837,142.033 170.433 C 141.630 170.030,141.232 169.495,141.148 169.244 C 140.873 168.419,136.238 167.802,134.415 168.348 C 132.595 168.894,132.515 169.118,133.500 170.920 C 134.545 172.831,134.545 188.329,133.500 190.361 C 133.041 191.253,132.800 192.633,132.800 194.361 L 132.801 197.000 134.759 198.100 C 139.283 200.641,139.632 200.002,139.350 189.683 C 139.056 178.900,139.840 175.605,142.036 178.400 C 142.468 178.950,143.267 179.934,143.811 180.586 C 144.355 181.238,144.800 181.983,144.800 182.240 C 144.800 182.497,145.250 183.003,145.800 183.363 C 146.350 183.724,146.800 184.219,146.800 184.463 C 146.800 184.708,147.205 185.324,147.700 185.833 C 148.636 186.795,149.354 187.654,152.000 190.977 C 152.865 192.064,153.850 193.108,154.187 193.297 C 154.524 193.485,154.800 193.817,154.800 194.033 C 154.800 194.476,157.422 197.200,157.849 197.200 C 158.000 197.200,158.714 197.650,159.436 198.200 C 160.514 199.023,161.195 199.200,163.273 199.200 L 165.800 199.200 165.801 187.100 C 165.801 176.480,165.888 174.784,166.506 173.234 C 167.563 170.587,167.148 169.140,165.071 168.235 C 162.912 167.294,162.750 167.257,161.810 167.494 M361.700 170.282 C 360.621 170.490,360.550 171.375,361.464 173.207 C 362.365 175.015,361.655 176.201,359.000 177.319 C 356.238 178.482,355.514 179.939,357.927 179.478 C 360.724 178.943,360.810 179.183,360.781 187.388 L 360.754 194.792 362.117 196.196 C 362.867 196.968,363.733 197.601,364.040 197.601 C 364.348 197.602,365.189 197.962,365.910 198.401 C 368.147 199.766,373.432 199.556,375.095 198.037 L 376.368 196.874 372.429 196.737 L 368.489 196.600 367.094 195.075 C 365.403 193.229,365.065 191.033,365.551 185.079 C 365.975 179.884,366.006 179.856,371.648 179.596 C 376.185 179.386,377.200 178.971,377.200 177.324 C 377.200 176.617,374.883 176.667,373.600 177.400 C 370.692 179.062,367.600 177.783,367.600 174.919 C 367.600 170.526,366.189 169.418,361.700 170.282 M62.600 172.801 C 62.463 173.021,62.798 173.371,63.344 173.579 C 63.889 173.786,64.516 174.278,64.736 174.672 C 65.095 175.313,65.166 175.275,65.406 174.317 C 65.826 172.646,63.479 171.378,62.600 172.801 M65.321 176.381 C 65.138 177.081,64.857 177.240,64.025 177.118 C 63.052 176.975,62.977 177.061,63.134 178.134 C 63.295 179.232,63.232 179.295,62.134 179.134 C 61.037 178.973,60.973 179.037,61.134 180.134 C 61.295 181.232,61.232 181.295,60.134 181.134 C 59.037 180.973,58.973 181.037,59.134 182.134 C 59.295 183.232,59.232 183.295,58.134 183.134 C 57.037 182.973,56.973 183.037,57.134 184.134 C 57.295 185.232,57.232 185.295,56.134 185.134 C 55.048 184.975,54.974 185.044,55.127 186.081 C 55.392 187.893,51.950 187.381,51.468 185.538 C 51.149 184.317,50.277 185.115,50.466 186.454 C 50.575 187.220,50.839 187.400,51.859 187.399 C 53.070 187.397,53.124 187.469,53.302 189.317 C 53.653 192.970,72.400 210.711,72.400 207.390 C 72.400 207.055,72.850 206.609,73.400 206.400 C 73.950 206.191,74.400 205.741,74.400 205.400 C 74.400 205.059,74.850 204.609,75.400 204.400 C 75.950 204.191,76.400 203.741,76.400 203.400 C 76.400 203.059,76.850 202.609,77.400 202.400 C 77.950 202.191,78.400 201.741,78.400 201.400 C 78.400 201.059,78.850 200.609,79.400 200.400 C 79.950 200.191,80.400 199.741,80.400 199.400 C 80.400 199.059,80.850 198.609,81.400 198.400 C 81.950 198.191,82.400 197.740,82.400 197.397 C 82.400 197.054,82.758 196.642,83.196 196.480 C 83.634 196.318,84.356 195.471,84.801 194.599 L 85.610 193.012 77.093 184.495 C 67.977 175.379,65.948 173.981,65.321 176.381 M244.982 180.500 C 245.348 185.341,245.331 186.556,244.823 191.800 C 244.244 197.769,244.941 199.200,248.422 199.200 C 249.825 199.200,251.118 197.278,250.280 196.440 C 249.455 195.615,249.635 186.016,250.500 184.696 C 250.972 183.976,251.200 182.839,251.200 181.202 C 251.200 179.253,251.062 178.725,250.500 178.523 C 250.115 178.385,249.478 177.941,249.084 177.536 C 248.595 177.032,247.790 176.800,246.535 176.800 L 244.702 176.800 244.982 180.500 M268.802 177.398 C 268.528 177.727,267.561 178.213,266.653 178.477 C 265.744 178.741,264.605 179.327,264.122 179.779 C 263.638 180.230,262.766 181.050,262.184 181.600 C 261.601 182.150,260.796 183.345,260.395 184.256 C 259.994 185.167,259.471 186.032,259.233 186.180 C 258.981 186.335,258.800 187.780,258.800 189.641 C 258.800 193.534,260.721 196.809,263.446 197.562 C 264.243 197.782,265.227 198.262,265.633 198.630 C 266.861 199.742,276.114 199.614,278.000 198.460 C 278.770 197.989,279.819 197.602,280.331 197.601 C 282.944 197.597,284.779 192.972,282.400 192.385 C 281.437 192.147,278.400 194.646,278.400 195.676 C 278.400 197.453,268.952 197.267,267.028 195.452 C 264.510 193.078,264.184 184.137,266.507 181.169 C 269.168 177.768,277.783 178.680,278.611 182.450 C 278.802 183.320,279.093 183.600,279.806 183.600 C 283.499 183.600,284.862 179.877,281.776 178.215 C 281.019 177.808,280.400 177.322,280.400 177.137 C 280.400 176.485,269.353 176.733,268.802 177.398 M334.162 177.355 C 334.045 177.661,333.185 178.124,332.252 178.385 C 330.315 178.928,326.400 182.618,326.400 183.901 C 326.400 184.327,326.040 185.002,325.600 185.400 C 324.932 186.004,324.800 186.632,324.800 189.200 C 324.800 191.768,324.932 192.396,325.600 193.000 C 326.040 193.398,326.400 194.047,326.400 194.442 C 326.400 195.258,328.724 197.595,329.538 197.598 C 329.834 197.599,330.618 197.986,331.281 198.457 C 333.088 199.745,341.515 199.750,343.600 198.466 C 344.370 197.991,345.372 197.602,345.827 197.601 C 347.126 197.599,349.600 195.172,349.600 193.901 C 349.600 192.433,347.314 191.700,346.460 192.894 C 342.013 199.116,332.101 198.548,331.329 192.026 C 330.931 188.670,331.657 188.002,335.709 187.993 C 341.435 187.981,345.995 187.344,346.980 186.419 C 347.459 185.969,348.059 185.600,348.312 185.600 C 349.413 185.600,349.919 182.896,349.350 180.050 C 349.181 179.206,348.866 178.800,348.381 178.800 C 347.985 178.800,347.127 178.350,346.473 177.800 C 345.038 176.592,334.599 176.215,334.162 177.355 M341.790 179.249 C 344.937 180.121,345.793 182.876,343.658 185.266 C 342.208 186.888,334.196 187.544,332.156 186.208 C 329.872 184.711,331.527 179.813,334.476 179.341 C 335.324 179.206,336.125 178.922,336.255 178.711 C 336.541 178.249,339.062 178.494,341.790 179.249 M72.683 208.650 C 72.371 208.962,72.801 210.000,73.243 210.000 C 73.700 210.000,73.710 208.915,73.256 208.634 C 73.066 208.517,72.809 208.524,72.683 208.650 M74.000 210.957 C 74.000 211.735,75.053 212.059,75.567 211.439 C 76.078 210.824,75.737 210.400,74.733 210.400 C 74.330 210.400,74.000 210.651,74.000 210.957 " stroke="none" fill="#373737" fill-rule="evenodd"></path><path id="path3" d="M38.262 154.731 C 37.656 155.401,37.600 158.582,37.600 192.272 L 37.600 229.081 40.500 231.699 C 43.173 234.113,44.480 235.283,46.600 237.159 C 47.040 237.549,48.750 239.005,50.400 240.396 C 52.050 241.787,53.580 243.122,53.800 243.362 C 54.020 243.603,54.863 244.295,55.673 244.900 L 57.147 246.000 80.884 246.000 C 99.836 246.000,104.781 245.894,105.411 245.474 C 105.845 245.185,106.920 244.736,107.800 244.477 C 112.064 243.221,116.076 237.833,116.792 232.400 C 117.575 226.460,117.176 175.788,116.331 173.927 C 115.522 172.142,112.964 170.351,110.438 169.798 C 108.828 169.446,108.575 169.248,108.400 168.198 C 107.985 165.710,104.125 162.400,101.640 162.400 C 100.858 162.400,100.690 162.095,100.207 159.800 C 99.854 158.124,98.148 156.263,95.840 155.039 L 93.881 154.000 66.402 154.000 C 40.290 154.000,38.891 154.036,38.262 154.731 M94.933 156.455 C 96.180 156.706,97.200 157.114,97.200 157.362 C 97.200 157.611,97.626 158.441,98.146 159.207 C 98.667 159.973,99.217 161.166,99.369 161.859 C 99.752 163.605,100.657 164.268,103.100 164.594 C 104.473 164.778,105.200 165.065,105.200 165.422 C 105.200 165.723,105.604 166.345,106.098 166.805 C 106.592 167.265,107.182 168.305,107.409 169.116 C 107.767 170.392,108.017 170.622,109.270 170.825 C 110.066 170.955,111.019 171.362,111.387 171.730 C 111.756 172.099,112.279 172.400,112.550 172.400 C 112.821 172.400,113.625 173.000,114.336 173.734 L 115.629 175.068 115.515 205.034 L 115.400 235.000 114.488 235.913 C 113.986 236.414,113.468 237.359,113.338 238.013 C 113.207 238.666,112.849 239.200,112.541 239.200 C 112.234 239.200,111.778 239.650,111.527 240.200 C 111.277 240.750,110.855 241.200,110.591 241.200 C 110.326 241.200,109.454 241.721,108.652 242.359 C 105.373 244.964,54.800 245.122,54.800 242.526 C 54.800 242.226,54.361 241.813,53.824 241.609 C 53.288 241.405,52.651 240.870,52.410 240.419 C 52.169 239.969,51.807 239.600,51.605 239.600 C 51.403 239.600,50.464 238.830,49.519 237.889 C 48.573 236.948,46.720 235.283,45.400 234.189 C 44.080 233.095,42.856 231.975,42.680 231.700 C 42.504 231.425,42.120 231.200,41.826 231.200 C 41.532 231.200,40.997 230.750,40.637 230.200 C 40.276 229.650,39.716 229.200,39.391 229.200 C 38.874 229.200,38.800 224.613,38.800 192.600 L 38.800 156.000 65.733 156.000 C 84.272 156.000,93.373 156.142,94.933 156.455 M42.162 158.442 C 41.284 159.412,40.732 221.517,41.582 223.752 L 41.980 224.800 67.971 224.800 C 96.469 224.800,95.740 224.861,96.386 222.435 C 97.248 219.198,96.698 160.403,95.800 159.781 C 95.360 159.477,94.809 159.065,94.575 158.868 C 93.130 157.646,92.152 157.600,67.688 157.600 C 43.022 157.600,42.921 157.603,42.162 158.442 M93.865 160.387 C 95.145 161.218,95.200 161.966,95.200 178.450 L 95.200 193.600 94.215 193.600 C 93.454 193.600,90.051 190.420,79.238 179.604 C 68.214 168.578,65.092 165.665,64.523 165.878 C 64.125 166.027,63.260 166.475,62.600 166.873 C 61.131 167.759,58.879 167.811,57.702 166.986 C 56.874 166.407,56.742 166.457,55.313 167.898 C 54.481 168.737,53.299 169.741,52.686 170.130 C 52.060 170.527,51.474 171.331,51.347 171.967 C 51.168 172.862,50.792 173.196,49.539 173.571 C 47.937 174.051,47.852 174.152,47.430 176.082 C 47.244 176.935,46.894 177.221,45.786 177.429 C 43.777 177.806,43.425 178.726,44.371 181.125 C 44.797 182.208,45.006 183.253,44.833 183.447 C 41.907 186.749,42.132 187.077,58.582 203.497 C 72.097 216.987,73.351 218.088,74.220 217.221 C 74.783 216.660,78.863 216.106,80.066 216.428 C 81.931 216.926,82.966 216.388,85.403 213.655 C 86.721 212.176,88.340 210.612,89.000 210.181 C 89.660 209.750,90.369 208.824,90.575 208.125 C 90.959 206.824,91.693 206.416,93.667 206.405 C 94.253 206.402,94.824 206.175,94.935 205.900 C 95.402 204.743,95.183 220.589,94.715 221.885 C 94.027 223.788,94.861 223.731,67.406 223.767 L 42.600 223.800 42.492 192.600 C 42.432 175.440,42.486 160.976,42.610 160.458 L 42.836 159.516 67.918 159.671 C 88.576 159.798,93.153 159.925,93.865 160.387 M292.472 164.040 C 290.493 164.632,289.712 166.678,290.688 168.715 C 291.742 170.913,291.751 188.440,290.700 191.314 C 289.542 194.481,289.773 197.100,291.377 198.974 L 292.724 200.547 295.974 200.547 C 300.430 200.547,300.590 200.359,300.467 195.269 C 300.347 190.330,300.529 189.802,303.430 186.690 C 303.886 186.201,304.376 185.485,304.517 185.100 C 304.659 184.715,305.044 184.400,305.373 184.400 C 305.703 184.400,306.149 184.069,306.366 183.664 C 306.582 183.259,307.746 182.565,308.951 182.121 L 311.142 181.314 311.372 182.229 C 311.625 183.237,311.026 185.200,310.465 185.200 C 310.270 185.200,309.431 185.740,308.600 186.400 C 307.769 187.060,306.751 187.600,306.336 187.600 C 305.921 187.600,304.781 188.338,303.802 189.241 L 302.022 190.882 303.105 192.341 C 305.042 194.952,309.318 198.800,310.281 198.800 C 310.648 198.800,311.370 199.196,311.885 199.680 C 313.330 201.037,319.876 201.029,321.326 199.668 C 323.166 197.942,322.928 195.867,320.837 195.408 C 320.199 195.268,318.992 194.804,318.154 194.377 C 317.316 193.950,316.225 193.600,315.729 193.600 C 315.233 193.600,314.272 193.057,313.594 192.394 C 312.375 191.203,312.306 190.400,313.420 190.400 C 313.735 190.400,314.218 190.040,314.493 189.600 C 314.768 189.160,315.282 188.800,315.635 188.800 C 316.495 188.800,320.797 184.255,320.813 183.330 C 320.820 182.928,321.076 182.270,321.381 181.867 C 322.786 180.012,319.852 175.645,317.119 175.523 C 312.838 175.332,309.386 175.668,308.392 176.373 C 307.838 176.766,306.938 177.228,306.392 177.400 C 305.356 177.726,303.829 178.771,302.151 180.300 C 300.343 181.948,300.269 181.674,300.573 174.482 C 300.776 169.697,300.725 167.481,300.396 166.782 C 299.362 164.584,295.323 163.186,292.472 164.040 M245.028 165.225 C 241.456 166.580,240.642 169.226,243.054 171.638 C 244.529 173.113,249.527 173.464,251.418 172.225 C 253.790 170.671,253.251 165.229,250.724 165.206 C 250.352 165.203,249.936 165.020,249.800 164.800 C 249.425 164.193,247.231 164.388,245.028 165.225 M298.200 165.931 C 300.188 167.303,300.420 169.607,299.385 177.721 C 298.823 182.120,298.873 184.622,299.488 182.900 C 299.586 182.625,300.001 182.400,300.410 182.400 C 300.818 182.400,301.267 182.216,301.405 181.991 C 303.742 178.211,314.364 174.720,317.925 176.561 C 322.809 179.087,320.958 184.314,313.312 189.590 L 311.297 190.981 312.278 192.266 C 313.241 193.529,318.607 196.000,320.385 196.000 C 322.331 196.000,322.250 197.572,320.217 199.291 C 317.156 201.880,307.783 197.807,304.257 192.356 C 303.353 190.959,303.736 190.181,305.947 188.930 C 311.495 185.789,312.733 184.427,312.210 182.045 C 311.445 178.564,305.487 181.911,301.122 188.273 C 299.390 190.796,299.013 192.573,299.605 195.423 C 300.320 198.866,299.484 200.000,296.234 200.000 C 292.554 200.000,290.935 198.076,291.327 194.167 C 292.468 182.779,292.512 170.291,291.422 167.573 C 290.415 165.062,295.245 163.891,298.200 165.931 M133.400 165.885 C 131.838 166.261,131.802 166.579,131.700 180.720 C 131.579 197.625,131.576 197.261,131.833 198.000 C 132.581 200.159,138.494 201.448,141.143 200.030 C 142.178 199.476,142.328 196.424,141.400 194.800 C 140.966 194.040,140.826 192.118,140.817 186.800 L 140.805 179.800 141.576 180.969 C 142.000 181.612,142.629 182.296,142.973 182.489 C 143.318 182.682,143.600 183.049,143.600 183.306 C 143.600 183.562,143.971 184.138,144.424 184.586 C 144.877 185.034,145.972 186.390,146.857 187.600 C 148.896 190.387,151.106 192.917,154.400 196.237 C 159.163 201.037,158.303 200.600,162.993 200.600 C 168.945 200.600,168.664 201.101,168.104 191.509 C 167.831 186.836,167.787 182.618,167.993 180.800 C 168.315 177.948,168.527 172.648,168.440 169.586 C 168.374 167.262,165.863 165.600,162.416 165.600 C 158.016 165.600,157.111 167.031,158.245 172.200 C 158.844 174.931,159.684 188.515,159.314 189.480 C 159.206 189.762,158.450 189.176,157.512 188.083 C 155.147 185.327,154.954 185.107,153.828 183.882 C 153.263 183.267,152.800 182.617,152.800 182.437 C 152.800 181.972,149.638 177.815,147.700 175.731 C 147.205 175.199,146.800 174.534,146.800 174.254 C 146.800 173.973,146.260 173.139,145.600 172.400 C 144.940 171.661,144.400 170.820,144.400 170.531 C 144.400 170.243,144.040 169.782,143.600 169.507 C 143.160 169.232,142.800 168.811,142.800 168.571 C 142.800 166.732,136.894 165.045,133.400 165.885 M175.775 165.943 C 173.856 166.297,173.439 168.874,174.600 173.200 C 175.385 176.126,175.380 183.276,174.590 186.280 C 174.255 187.556,173.868 190.518,173.731 192.862 L 173.482 197.123 175.241 198.757 C 177.095 200.478,177.957 200.694,181.995 200.449 C 184.876 200.274,184.871 200.289,184.594 193.235 C 184.294 185.594,183.960 186.061,189.400 186.499 C 197.494 187.151,200.217 186.181,200.656 182.492 C 200.970 179.847,200.899 179.823,192.315 179.600 L 184.600 179.400 184.600 176.000 L 184.600 172.600 192.057 172.745 C 200.099 172.902,202.160 172.585,202.624 171.123 C 202.875 170.333,202.928 170.347,203.807 171.448 L 204.728 172.600 210.727 172.600 C 214.026 172.600,216.868 172.740,217.041 172.912 C 217.676 173.539,217.352 186.051,216.639 188.454 C 216.271 189.694,215.932 192.165,215.885 193.945 L 215.800 197.181 217.431 198.815 C 219.034 200.422,219.112 200.451,222.031 200.496 C 227.130 200.574,226.638 202.060,226.618 186.632 C 226.608 179.281,226.743 173.124,226.918 172.949 C 227.093 172.774,229.447 172.534,232.149 172.415 L 237.063 172.200 238.650 170.694 C 240.004 169.411,240.215 168.990,240.081 167.841 C 239.824 165.640,239.516 165.600,222.859 165.600 L 207.755 165.600 206.438 166.572 C 205.237 167.458,204.000 167.576,204.000 166.806 C 204.000 165.787,180.511 165.069,175.775 165.943 M251.577 166.580 C 254.716 169.420,249.544 173.728,245.047 172.018 C 242.441 171.027,242.109 167.457,244.510 166.232 C 246.266 165.336,250.430 165.541,251.577 166.580 M100.165 166.839 C 99.431 167.649,99.392 168.820,99.200 195.342 L 99.000 223.000 97.665 224.923 C 95.738 227.698,96.735 227.600,70.548 227.600 C 46.750 227.600,45.200 227.684,45.200 228.981 C 45.200 230.051,48.069 232.800,49.186 232.800 C 49.766 232.800,50.426 232.986,50.653 233.213 C 51.207 233.767,95.832 233.488,98.595 232.913 C 100.666 232.482,103.554 229.890,104.433 227.674 C 105.290 225.511,104.880 168.880,104.000 168.000 C 103.560 167.560,102.989 167.200,102.731 167.200 C 102.474 167.200,101.963 166.929,101.596 166.597 C 100.998 166.055,100.852 166.080,100.165 166.839 M140.442 167.568 C 141.651 168.302,142.784 169.654,144.996 173.000 C 146.474 175.237,148.730 178.342,149.209 178.800 C 149.324 178.910,149.741 179.507,150.136 180.126 C 150.530 180.746,151.099 181.556,151.399 181.926 C 158.917 191.195,158.972 191.253,159.492 190.542 C 160.122 189.680,160.173 178.367,159.566 174.200 C 158.475 166.715,158.477 166.707,162.073 166.485 C 166.908 166.187,168.370 168.196,167.618 174.104 C 166.548 182.501,166.462 184.167,166.832 189.313 C 167.042 192.221,167.321 195.618,167.453 196.861 C 167.765 199.802,167.197 200.163,162.633 199.924 C 159.031 199.735,158.880 199.655,155.184 196.000 C 153.117 193.957,144.169 183.114,142.021 180.050 L 141.075 178.700 140.485 179.825 C 139.905 180.932,140.001 191.045,140.648 197.021 C 140.975 200.039,138.268 200.975,134.494 199.149 C 131.810 197.850,131.737 197.458,132.569 188.871 C 133.234 182.008,133.143 175.481,132.296 169.200 C 131.947 166.619,137.159 165.575,140.442 167.568 M202.167 166.643 C 202.515 166.776,202.800 167.207,202.800 167.600 C 202.800 168.303,203.547 168.800,204.602 168.800 C 204.897 168.800,205.727 168.305,206.445 167.700 L 207.752 166.600 222.373 166.481 C 239.348 166.343,238.891 166.292,238.723 168.301 C 238.506 170.894,236.795 171.657,231.498 171.522 C 226.542 171.396,226.586 171.369,226.166 174.737 C 225.835 177.385,225.729 190.546,226.000 195.331 C 226.233 199.451,225.870 200.000,222.911 200.000 C 217.216 200.000,216.071 197.508,217.578 188.400 C 217.778 187.190,217.955 183.205,217.971 179.544 C 218.011 170.482,218.155 170.636,210.496 171.605 C 206.202 172.149,204.400 171.869,204.400 170.658 C 204.400 169.200,203.309 169.171,201.889 170.591 L 200.480 172.000 195.940 171.968 C 193.443 171.951,189.931 171.814,188.136 171.665 C 184.134 171.331,183.934 171.535,183.682 176.213 C 183.439 180.729,183.182 180.600,192.366 180.600 L 199.800 180.600 199.927 181.921 C 200.271 185.505,195.689 186.854,188.135 185.394 L 185.000 184.787 184.200 185.774 C 183.441 186.710,183.418 187.066,183.758 192.802 C 184.161 199.603,184.165 199.590,181.482 199.892 C 175.648 200.549,173.628 197.031,175.228 189.000 C 175.967 185.289,175.973 174.691,175.239 170.915 C 174.400 166.605,173.827 166.835,185.743 166.700 C 191.275 166.637,197.090 166.544,198.667 166.493 C 200.244 166.442,201.819 166.509,202.167 166.643 M93.173 194.800 C 93.991 194.800,94.038 196.953,93.242 198.028 C 91.984 199.730,91.875 200.853,92.752 203.078 L 93.553 205.109 92.314 205.357 C 90.722 205.676,90.084 206.225,89.397 207.868 C 88.989 208.845,88.589 209.200,87.894 209.200 C 87.204 209.200,86.765 209.584,86.270 210.622 C 85.845 211.513,85.155 212.197,84.421 212.453 C 83.616 212.733,83.173 213.214,83.002 213.990 C 82.705 215.344,81.715 215.683,79.790 215.093 C 78.672 214.749,77.942 214.798,76.255 215.330 C 75.086 215.698,73.861 216.000,73.532 216.000 C 73.018 216.000,48.823 192.209,45.576 188.512 C 44.386 187.157,44.372 186.441,45.508 185.116 C 46.283 184.213,46.217 181.391,45.393 180.133 C 44.625 178.961,44.727 178.796,46.442 178.445 C 47.792 178.169,48.211 177.676,48.574 175.940 C 48.746 175.113,49.124 174.803,50.297 174.527 C 51.590 174.224,51.882 173.938,52.388 172.487 C 52.819 171.248,53.191 170.801,53.788 170.804 C 54.234 170.806,55.069 170.237,55.641 169.540 C 56.653 168.310,56.767 168.276,59.641 168.348 C 61.916 168.405,62.876 168.252,63.795 167.683 L 64.990 166.944 78.912 180.872 C 86.568 188.532,92.986 194.800,93.173 194.800 M360.452 168.300 C 359.752 168.886,359.598 169.522,359.508 172.194 L 359.400 175.389 357.824 175.644 C 355.542 176.013,353.416 178.359,354.068 179.790 C 354.539 180.822,355.228 181.010,357.885 180.829 C 359.574 180.713,359.870 181.824,359.183 185.712 C 358.059 192.080,359.712 198.800,362.403 198.800 C 362.621 198.800,363.144 199.144,363.564 199.564 C 365.183 201.183,375.162 201.229,376.461 199.623 C 376.828 199.171,377.321 198.800,377.556 198.800 C 378.307 198.800,378.563 196.728,377.949 195.628 C 377.328 194.517,375.423 194.017,374.671 194.769 C 374.087 195.353,370.346 195.293,369.600 194.687 C 366.601 192.252,366.056 188.439,367.988 183.400 C 369.125 180.434,368.951 180.600,370.331 181.171 C 370.967 181.435,372.058 181.667,372.755 181.686 C 373.928 181.720,374.466 181.546,377.175 180.260 C 378.350 179.703,379.025 177.569,378.398 176.397 C 378.017 175.684,377.557 175.600,374.019 175.600 C 368.791 175.600,368.801 175.605,368.794 172.857 C 368.782 168.554,363.559 165.701,360.452 168.300 M103.404 170.981 C 103.536 172.091,103.590 184.970,103.522 199.600 L 103.400 226.200 102.474 227.872 C 101.965 228.792,100.885 230.052,100.074 230.672 L 98.600 231.800 75.000 231.920 C 48.773 232.054,48.920 232.063,48.340 230.400 C 48.119 229.766,47.637 229.167,47.269 229.070 C 46.901 228.972,57.451 228.872,70.713 228.846 C 97.630 228.795,96.494 228.911,98.826 225.968 L 100.200 224.233 100.409 196.216 C 100.524 180.807,100.659 168.171,100.709 168.135 C 101.588 167.502,103.190 169.195,103.404 170.981 M366.006 169.143 C 367.734 170.063,368.385 171.275,368.400 173.600 C 368.420 176.562,369.699 177.034,375.391 176.180 C 377.427 175.875,378.201 176.574,377.808 178.361 C 377.466 179.919,375.759 180.498,371.664 180.448 C 367.288 180.394,366.410 181.701,366.305 188.430 C 366.217 194.146,367.692 195.800,372.878 195.800 C 377.957 195.800,378.698 196.399,376.373 198.625 C 374.566 200.355,366.366 200.435,363.800 198.748 C 359.928 196.202,359.486 194.878,359.848 186.905 C 360.115 181.037,359.870 179.768,358.568 180.268 C 357.638 180.624,355.178 180.007,354.927 179.354 C 354.604 178.512,356.731 176.400,357.901 176.400 C 359.983 176.400,360.458 175.755,360.352 173.073 C 360.224 169.851,360.567 168.891,361.919 168.685 C 364.094 168.353,364.639 168.414,366.006 169.143 M108.471 173.948 C 107.371 174.645,107.219 178.077,107.201 202.600 C 107.183 226.986,107.157 227.832,106.400 228.800 C 105.970 229.350,105.614 230.077,105.609 230.416 C 105.604 230.756,104.835 231.705,103.900 232.527 C 102.965 233.349,101.872 234.332,101.472 234.711 C 100.806 235.341,98.807 235.417,77.986 235.600 C 53.254 235.817,52.707 235.871,54.479 237.888 C 54.824 238.279,55.226 238.996,55.373 239.480 C 55.520 239.963,56.009 240.476,56.460 240.619 C 56.910 240.762,57.621 241.221,58.039 241.639 C 59.256 242.856,102.559 242.819,104.109 241.600 C 104.669 241.160,105.587 240.800,106.149 240.800 C 106.747 240.800,107.683 240.301,108.400 239.600 C 109.075 238.940,109.789 238.400,109.987 238.400 C 110.184 238.400,110.471 238.005,110.625 237.522 C 110.778 237.040,111.285 236.336,111.752 235.958 L 112.600 235.271 112.708 205.937 C 112.788 184.158,112.694 176.311,112.345 175.468 C 111.716 173.947,109.712 173.161,108.471 173.948 M268.778 175.539 C 267.776 175.693,266.446 176.220,265.824 176.710 C 265.201 177.199,264.511 177.600,264.289 177.600 C 263.510 177.600,259.597 181.274,259.356 182.231 C 259.223 182.764,258.982 183.200,258.821 183.200 C 257.797 183.200,256.972 188.346,257.382 192.173 C 257.681 194.964,259.591 198.089,261.335 198.643 C 261.802 198.791,262.698 199.292,263.326 199.756 C 265.064 201.041,278.525 201.048,280.267 199.766 C 280.890 199.307,281.861 198.817,282.424 198.677 C 285.454 197.925,287.041 193.511,284.961 191.619 C 282.026 188.948,281.035 189.065,278.334 192.400 C 275.387 196.039,271.336 196.741,268.254 194.147 C 265.864 192.136,265.741 185.209,268.050 182.681 C 268.682 181.988,269.200 181.282,269.200 181.111 C 269.200 180.164,275.474 180.806,275.927 181.800 C 276.178 182.350,276.567 182.800,276.791 182.800 C 277.016 182.800,277.200 183.126,277.200 183.525 C 277.200 184.318,278.587 186.000,279.241 186.000 C 280.735 186.000,284.031 183.906,284.732 182.512 C 287.397 177.209,279.719 173.853,268.778 175.539 M334.600 175.476 C 333.068 175.676,331.200 176.406,331.200 176.805 C 331.200 176.975,330.745 177.227,330.190 177.367 C 323.145 179.135,320.869 195.196,327.200 198.471 C 327.750 198.756,328.710 199.351,329.334 199.794 C 331.043 201.009,344.012 201.018,345.818 199.807 C 346.468 199.370,347.630 198.723,348.400 198.368 C 352.237 196.598,352.348 192.005,348.598 190.226 C 346.672 189.312,345.902 189.662,344.200 192.227 C 342.158 195.303,341.380 195.725,338.101 195.530 C 334.948 195.343,332.800 193.755,332.800 191.610 L 332.800 190.482 337.700 190.337 C 341.334 190.229,342.910 190.018,343.800 189.520 C 344.460 189.150,345.670 188.740,346.489 188.608 C 347.307 188.476,348.207 188.048,348.489 187.658 C 348.770 187.267,349.318 186.829,349.706 186.684 C 350.094 186.539,350.578 185.983,350.781 185.449 C 350.984 184.915,351.342 184.360,351.575 184.215 C 352.213 183.821,352.086 180.943,351.400 180.257 C 351.070 179.927,350.800 179.404,350.800 179.096 C 350.800 176.281,342.558 174.440,334.600 175.476 M111.300 176.279 C 111.465 176.371,111.600 189.150,111.600 204.675 L 111.600 232.903 110.418 234.951 C 109.283 236.920,107.728 238.431,105.600 239.635 C 104.065 240.502,59.904 240.705,57.867 239.854 C 56.748 239.386,56.502 239.095,56.674 238.440 C 56.888 237.621,57.061 237.613,77.345 237.504 C 102.321 237.371,102.679 237.295,106.877 231.292 L 108.200 229.400 108.413 202.600 C 108.529 187.860,108.664 175.752,108.713 175.692 C 108.814 175.567,110.857 176.030,111.300 176.279 M243.428 176.229 C 242.946 176.711,242.869 177.245,243.100 178.529 C 243.711 181.932,243.455 191.265,242.700 193.108 C 241.644 195.684,241.813 197.147,243.377 198.974 L 244.724 200.547 247.932 200.547 C 252.554 200.547,252.486 200.652,252.329 193.827 C 252.258 190.732,252.358 186.000,252.551 183.311 L 252.902 178.422 251.491 177.011 C 249.849 175.369,244.780 174.877,243.428 176.229 M248.602 176.400 C 251.782 176.400,252.738 179.948,251.356 186.627 C 250.949 188.597,250.801 190.559,250.954 191.970 C 251.798 199.772,251.832 199.131,250.554 199.627 C 245.816 201.466,242.303 198.291,243.664 193.400 C 243.911 192.515,244.130 188.405,244.155 184.204 L 244.200 176.608 245.400 176.353 C 246.060 176.212,246.840 176.165,247.133 176.249 C 247.426 176.332,248.087 176.400,248.602 176.400 M282.467 177.416 C 285.932 179.847,284.710 183.625,280.150 184.580 C 278.991 184.823,278.824 184.711,277.844 183.039 C 276.105 180.071,272.958 179.102,269.360 180.427 C 266.668 181.418,265.299 185.785,265.994 191.164 C 266.821 197.572,276.259 198.101,279.897 191.944 C 281.094 189.916,285.562 191.694,284.994 193.972 C 283.961 198.112,279.589 200.120,271.600 200.125 L 266.200 200.128 263.400 198.686 C 259.046 196.443,258.200 194.965,258.200 189.600 L 258.200 185.400 259.741 183.200 C 262.068 179.878,265.196 177.516,268.800 176.360 C 271.639 175.449,280.658 176.146,282.467 177.416 M347.996 177.396 C 355.435 182.555,348.414 189.546,335.749 189.590 C 332.428 189.602,331.773 190.064,332.159 192.121 C 333.143 197.367,341.126 197.913,344.844 192.988 C 346.657 190.587,347.170 190.419,349.100 191.596 C 352.097 193.423,350.351 196.742,345.200 199.006 C 341.304 200.718,333.254 200.734,329.973 199.035 C 320.233 193.994,322.954 179.387,334.212 176.275 C 337.136 175.466,346.286 176.211,347.996 177.396 M335.800 179.844 C 332.756 180.607,331.461 182.542,332.381 184.953 L 332.820 186.106 336.710 185.917 C 342.000 185.660,344.326 184.440,343.768 182.215 C 343.301 180.353,338.944 179.057,335.800 179.844 M342.452 181.651 C 342.854 182.173,343.186 182.781,343.191 183.002 C 343.210 183.861,338.638 185.200,335.684 185.200 L 332.800 185.200 332.800 183.889 C 332.800 180.664,340.348 178.914,342.452 181.651 M95.140 201.700 C 95.088 204.220,95.048 204.364,94.840 202.800 C 94.609 201.067,94.725 198.800,95.045 198.800 C 95.130 198.800,95.173 200.105,95.140 201.700 M131.694 206.015 C 130.645 206.436,130.000 207.878,130.000 209.803 C 130.000 212.590,126.096 212.400,183.256 212.400 C 211.569 212.400,235.019 212.509,235.367 212.643 C 236.034 212.899,236.269 215.774,235.694 216.645 C 235.484 216.963,225.814 217.171,202.000 217.371 C 171.359 217.629,168.556 217.707,168.069 218.326 C 167.411 219.160,167.675 222.247,168.472 223.044 C 169.379 223.950,304.776 224.401,305.519 223.500 C 305.805 223.154,306.132 222.180,306.245 221.336 C 306.359 220.491,306.534 219.395,306.634 218.900 L 306.815 218.000 340.379 218.000 C 378.250 218.000,375.200 218.281,375.200 214.794 C 375.200 211.305,380.082 211.600,322.344 211.600 C 294.251 211.600,270.981 211.491,270.633 211.357 C 270.163 211.177,270.000 210.553,270.000 208.937 C 270.000 205.290,276.497 205.597,199.913 205.625 C 160.484 205.640,132.225 205.801,131.694 206.015 M268.237 209.244 C 268.676 213.125,263.711 212.800,322.587 212.800 L 374.000 212.800 374.000 213.781 C 374.000 214.321,373.791 215.221,373.536 215.781 L 373.072 216.800 340.012 216.800 C 303.213 216.800,305.642 216.603,305.235 219.625 C 305.043 221.044,304.816 221.416,304.000 221.643 C 303.450 221.795,272.805 221.938,235.900 221.960 L 168.800 222.000 168.800 220.400 L 168.800 218.800 201.900 218.795 C 240.742 218.788,237.364 219.157,237.862 214.869 C 238.275 211.318,242.878 211.600,184.471 211.600 C 156.308 211.600,132.981 211.491,132.633 211.357 C 131.984 211.108,131.747 208.724,132.243 207.433 C 132.463 206.859,138.824 206.800,200.223 206.800 L 267.960 206.800 268.237 209.244 M70.396 209.396 C 70.896 209.998,71.600 209.869,71.600 209.176 C 71.600 208.969,71.218 208.800,70.751 208.800 C 70.045 208.800,69.985 208.900,70.396 209.396 " stroke="none" fill="#9cccb2" fill-rule="evenodd"></path><path id="path4" d="M292.014 165.873 C 291.535 166.483,291.279 167.216,291.422 167.573 C 292.512 170.291,292.468 182.779,291.327 194.167 C 290.935 198.076,292.554 200.000,296.234 200.000 C 299.484 200.000,300.320 198.866,299.605 195.423 C 299.013 192.573,299.390 190.796,301.122 188.273 C 305.487 181.911,311.445 178.564,312.210 182.045 C 312.733 184.427,311.495 185.789,305.947 188.930 C 303.736 190.181,303.353 190.959,304.257 192.356 C 307.783 197.807,317.156 201.880,320.217 199.291 C 322.250 197.572,322.331 196.000,320.385 196.000 C 318.607 196.000,313.241 193.529,312.278 192.266 L 311.297 190.981 313.312 189.590 C 320.958 184.314,322.809 179.087,317.925 176.561 C 314.364 174.720,303.742 178.211,301.405 181.991 C 301.267 182.216,300.818 182.400,300.410 182.400 C 300.001 182.400,299.586 182.625,299.488 182.900 C 298.873 184.622,298.823 182.120,299.385 177.721 C 300.420 169.607,300.188 167.303,298.200 165.931 C 295.951 164.379,293.210 164.353,292.014 165.873 M244.510 166.232 C 242.109 167.457,242.441 171.027,245.047 172.018 C 248.600 173.369,252.400 171.438,252.400 168.282 C 252.400 165.988,247.489 164.712,244.510 166.232 M134.738 166.714 C 132.982 166.833,132.098 167.734,132.296 169.200 C 133.143 175.481,133.234 182.008,132.569 188.871 C 131.737 197.458,131.810 197.850,134.494 199.149 C 138.268 200.975,140.975 200.039,140.648 197.021 C 140.001 191.045,139.905 180.932,140.485 179.825 L 141.075 178.700 142.021 180.050 C 144.169 183.114,153.117 193.957,155.184 196.000 C 158.880 199.655,159.031 199.735,162.633 199.924 C 167.197 200.163,167.765 199.802,167.453 196.861 C 167.321 195.618,167.042 192.221,166.832 189.313 C 166.462 184.167,166.548 182.501,167.618 174.104 C 168.370 168.196,166.908 166.187,162.073 166.485 C 158.477 166.707,158.475 166.715,159.566 174.200 C 160.173 178.367,160.122 189.680,159.492 190.542 C 158.972 191.253,158.917 191.195,151.399 181.926 C 151.099 181.556,150.530 180.746,150.136 180.126 C 149.741 179.507,149.324 178.910,149.209 178.800 C 148.730 178.342,146.474 175.237,144.996 173.000 C 141.134 167.158,139.843 166.366,134.738 166.714 M185.743 166.700 C 173.827 166.835,174.400 166.605,175.239 170.915 C 175.973 174.691,175.967 185.289,175.228 189.000 C 173.628 197.031,175.648 200.549,181.482 199.892 C 184.165 199.590,184.161 199.603,183.758 192.802 C 183.418 187.066,183.441 186.710,184.200 185.774 L 185.000 184.787 188.135 185.394 C 195.689 186.854,200.271 185.505,199.927 181.921 L 199.800 180.600 192.366 180.600 C 183.182 180.600,183.439 180.729,183.682 176.213 C 183.934 171.535,184.134 171.331,188.136 171.665 C 189.931 171.814,193.443 171.951,195.940 171.968 L 200.480 172.000 201.889 170.591 C 203.309 169.171,204.400 169.200,204.400 170.658 C 204.400 171.869,206.202 172.149,210.496 171.605 C 218.155 170.636,218.011 170.482,217.971 179.544 C 217.955 183.205,217.778 187.190,217.578 188.400 C 216.071 197.508,217.216 200.000,222.911 200.000 C 225.870 200.000,226.233 199.451,226.000 195.331 C 225.729 190.546,225.835 177.385,226.166 174.737 C 226.586 171.369,226.542 171.396,231.498 171.522 C 236.795 171.657,238.506 170.894,238.723 168.301 C 238.891 166.292,239.348 166.343,222.373 166.481 L 207.752 166.600 206.445 167.700 C 205.727 168.305,204.897 168.800,204.602 168.800 C 203.547 168.800,202.800 168.303,202.800 167.600 C 202.800 166.606,201.978 166.386,198.667 166.493 C 197.090 166.544,191.275 166.637,185.743 166.700 M298.745 166.966 C 299.429 167.389,299.320 173.215,298.596 174.948 C 297.610 177.309,297.335 183.278,298.175 184.117 C 299.138 185.081,299.280 185.032,301.969 182.794 C 303.295 181.691,304.834 180.615,305.390 180.404 C 305.945 180.193,306.400 179.768,306.400 179.461 C 306.400 179.118,307.020 178.803,308.006 178.645 C 308.889 178.504,309.969 178.031,310.406 177.594 C 313.204 174.796,319.876 177.388,319.516 181.134 C 319.341 182.957,315.650 187.600,314.376 187.600 C 313.821 187.600,310.001 190.569,310.000 191.000 C 309.999 191.879,313.124 194.800,314.065 194.800 C 314.591 194.800,315.322 195.150,315.688 195.578 C 316.142 196.108,317.117 196.441,318.758 196.627 L 321.162 196.899 320.012 198.050 C 318.576 199.485,315.937 199.638,313.910 198.401 C 313.189 197.962,312.324 197.602,311.986 197.601 C 311.084 197.599,305.490 192.890,304.753 191.512 C 304.422 190.893,304.556 190.704,305.579 190.347 C 306.250 190.113,306.800 189.669,306.800 189.361 C 306.800 189.027,307.211 188.800,307.818 188.800 C 308.378 188.800,309.286 188.350,309.836 187.800 C 310.386 187.250,310.949 186.800,311.087 186.800 C 311.599 186.800,312.800 185.455,312.800 184.882 C 312.800 184.555,313.115 184.056,313.500 183.772 C 314.218 183.243,313.388 180.768,312.204 179.906 C 311.322 179.265,308.405 179.585,307.707 180.400 C 307.330 180.840,306.813 181.200,306.558 181.200 C 305.937 181.200,301.200 185.903,301.200 186.521 C 301.200 186.789,300.840 187.232,300.400 187.507 C 299.960 187.782,299.600 188.251,299.600 188.549 C 299.600 188.848,299.210 189.588,298.733 190.194 C 297.640 191.583,297.586 194.176,298.613 195.915 C 300.219 198.634,296.339 200.343,293.652 198.100 L 292.334 197.000 292.781 188.400 C 293.072 182.800,293.105 177.567,292.875 173.400 C 292.681 169.880,292.609 166.843,292.715 166.650 C 292.932 166.259,298.034 166.527,298.745 166.966 M201.357 167.433 C 202.680 170.880,196.673 172.498,189.600 170.600 C 184.486 169.227,183.705 169.722,182.575 175.047 C 181.758 178.902,181.938 179.905,183.686 181.211 C 185.419 182.505,194.461 182.704,196.680 181.497 C 198.580 180.463,199.200 180.589,199.200 182.010 C 199.200 182.914,198.961 183.311,198.255 183.579 C 197.735 183.777,197.200 184.223,197.067 184.569 C 196.746 185.406,191.774 185.450,190.193 184.630 C 184.069 181.453,180.427 185.357,182.621 192.746 C 183.986 197.344,182.056 200.874,179.269 198.877 C 178.901 198.614,178.233 198.237,177.784 198.041 C 175.928 197.228,175.873 196.889,176.412 189.596 C 176.700 185.703,176.826 179.808,176.707 175.837 C 176.592 172.015,176.611 168.733,176.749 168.544 C 176.887 168.355,181.500 168.182,187.000 168.160 C 194.950 168.128,197.328 167.994,198.600 167.507 C 200.721 166.693,201.070 166.684,201.357 167.433 M237.357 167.433 C 238.229 169.704,236.313 170.503,230.854 170.145 C 225.863 169.818,225.753 169.937,225.185 176.247 C 224.969 178.641,224.637 182.040,224.447 183.800 C 224.236 185.758,224.254 187.931,224.495 189.400 C 226.056 198.933,225.181 200.860,220.436 198.338 C 218.212 197.155,218.062 196.582,218.517 191.000 C 219.108 183.757,218.724 171.350,217.883 170.513 C 216.947 169.583,212.099 169.605,209.851 170.549 C 207.201 171.663,206.049 171.457,206.362 169.926 C 206.740 168.077,207.426 167.983,221.400 167.877 C 229.820 167.814,234.121 167.634,234.800 167.317 C 236.212 166.659,237.075 166.698,237.357 167.433 M251.200 167.367 C 251.200 167.679,251.308 168.215,251.439 168.559 C 251.844 169.614,249.504 171.600,247.857 171.600 C 244.855 171.600,243.969 170.667,244.342 167.900 L 244.491 166.800 247.845 166.800 C 250.475 166.800,251.200 166.923,251.200 167.367 M165.071 168.235 C 167.148 169.140,167.563 170.587,166.506 173.234 C 165.888 174.784,165.801 176.480,165.801 187.100 L 165.800 199.200 163.273 199.200 C 161.195 199.200,160.514 199.023,159.436 198.200 C 158.714 197.650,158.000 197.200,157.849 197.200 C 157.422 197.200,154.800 194.476,154.800 194.033 C 154.800 193.817,154.524 193.485,154.187 193.297 C 153.850 193.108,152.865 192.064,152.000 190.977 C 149.354 187.654,148.636 186.795,147.700 185.833 C 147.205 185.324,146.800 184.708,146.800 184.463 C 146.800 184.219,146.350 183.724,145.800 183.363 C 145.250 183.003,144.800 182.497,144.800 182.240 C 144.800 181.983,144.355 181.238,143.811 180.586 C 143.267 179.934,142.468 178.950,142.036 178.400 C 139.840 175.605,139.056 178.900,139.350 189.683 C 139.632 200.002,139.283 200.641,134.759 198.100 L 132.801 197.000 132.800 194.361 C 132.800 192.633,133.041 191.253,133.500 190.361 C 134.545 188.329,134.545 172.831,133.500 170.920 C 132.515 169.118,132.595 168.894,134.415 168.348 C 136.238 167.802,140.873 168.419,141.148 169.244 C 141.232 169.495,141.630 170.030,142.033 170.433 C 142.437 170.837,143.138 171.894,143.592 172.783 C 144.045 173.673,144.575 174.400,144.769 174.400 C 144.963 174.400,145.310 174.940,145.540 175.600 C 145.770 176.260,146.238 176.800,146.579 176.800 C 146.921 176.800,147.200 177.121,147.200 177.514 C 147.200 177.907,147.695 178.826,148.300 179.557 C 148.905 180.289,149.865 181.452,150.433 182.144 C 151.000 182.835,151.580 183.715,151.720 184.100 C 151.860 184.485,152.251 184.800,152.587 184.800 C 152.924 184.800,153.200 185.042,153.200 185.339 C 153.200 185.635,153.515 186.255,153.900 186.716 C 154.285 187.177,155.489 188.644,156.575 189.977 C 158.625 192.492,159.679 192.948,160.386 191.626 C 160.854 190.751,160.903 174.764,160.449 171.131 C 159.975 167.347,161.230 166.561,165.071 168.235 M361.919 168.685 C 360.567 168.891,360.224 169.851,360.352 173.073 C 360.458 175.755,359.983 176.400,357.901 176.400 C 356.731 176.400,354.604 178.512,354.927 179.354 C 355.178 180.007,357.638 180.624,358.568 180.268 C 359.870 179.768,360.115 181.037,359.848 186.905 C 359.486 194.878,359.928 196.202,363.800 198.748 C 366.366 200.435,374.566 200.355,376.373 198.625 C 378.698 196.399,377.957 195.800,372.878 195.800 C 367.692 195.800,366.217 194.146,366.305 188.430 C 366.410 181.701,367.288 180.394,371.664 180.448 C 375.759 180.498,377.466 179.919,377.808 178.361 C 378.201 176.574,377.427 175.875,375.391 176.180 C 369.699 177.034,368.420 176.562,368.400 173.600 C 368.385 171.275,367.734 170.063,366.006 169.143 C 364.639 168.414,364.094 168.353,361.919 168.685 M365.895 170.423 C 367.211 170.882,367.600 171.907,367.600 174.919 C 367.600 177.783,370.692 179.062,373.600 177.400 C 374.883 176.667,377.200 176.617,377.200 177.324 C 377.200 178.971,376.185 179.386,371.648 179.596 C 366.006 179.856,365.975 179.884,365.551 185.079 C 365.065 191.033,365.403 193.229,367.094 195.075 L 368.489 196.600 372.429 196.737 L 376.368 196.874 375.095 198.037 C 373.432 199.556,368.147 199.766,365.910 198.401 C 365.189 197.962,364.348 197.602,364.040 197.601 C 363.733 197.601,362.867 196.968,362.117 196.196 L 360.754 194.792 360.781 187.388 C 360.810 179.183,360.724 178.943,357.927 179.478 C 355.514 179.939,356.238 178.482,359.000 177.319 C 361.655 176.201,362.365 175.015,361.464 173.207 C 360.064 170.401,362.122 169.108,365.895 170.423 M56.160 177.726 C 52.522 181.349,49.202 184.954,48.783 185.736 L 48.021 187.158 49.064 187.979 C 49.638 188.431,50.334 188.800,50.611 188.800 C 50.887 188.800,51.216 189.205,51.341 189.700 C 51.696 191.100,69.654 208.800,70.720 208.800 C 71.374 208.800,71.600 209.038,71.600 209.730 C 71.600 210.964,73.181 212.400,74.539 212.400 C 75.597 212.400,88.800 199.780,88.800 198.769 C 88.800 198.566,89.058 198.400,89.373 198.400 C 90.674 198.400,90.504 196.782,89.055 195.374 C 88.277 194.619,87.463 194.000,87.247 194.000 C 87.031 194.000,86.738 193.635,86.597 193.189 C 86.455 192.743,85.903 192.093,85.370 191.743 C 84.836 191.394,84.400 190.854,84.400 190.544 C 84.400 190.234,83.950 189.809,83.400 189.600 C 82.850 189.391,82.400 188.941,82.400 188.600 C 82.400 188.259,81.950 187.809,81.400 187.600 C 80.850 187.391,80.400 186.941,80.400 186.600 C 80.400 186.259,79.950 185.809,79.400 185.600 C 78.850 185.391,78.400 184.941,78.400 184.600 C 78.400 184.259,77.950 183.809,77.400 183.600 C 76.850 183.391,76.400 182.941,76.400 182.600 C 76.400 182.259,75.950 181.809,75.400 181.600 C 74.850 181.391,74.400 180.941,74.400 180.600 C 74.400 180.259,73.950 179.809,73.400 179.600 C 72.850 179.391,72.400 178.941,72.400 178.600 C 72.400 178.259,71.950 177.809,71.400 177.600 C 70.850 177.391,70.400 176.941,70.400 176.600 C 70.400 176.259,69.943 175.806,69.385 175.594 C 68.190 175.140,66.400 173.314,66.400 172.549 C 66.400 172.256,65.905 171.905,65.300 171.770 C 64.695 171.636,63.880 171.439,63.488 171.332 C 62.975 171.192,60.928 172.979,56.160 177.726 M65.414 172.823 C 65.558 173.055,65.554 173.728,65.406 174.317 C 65.166 175.275,65.095 175.313,64.736 174.672 C 64.516 174.278,63.889 173.786,63.344 173.579 C 62.798 173.371,62.463 173.021,62.600 172.801 C 62.928 172.269,65.082 172.286,65.414 172.823 M77.093 184.495 L 85.610 193.012 84.801 194.599 C 84.356 195.471,83.634 196.318,83.196 196.480 C 82.758 196.642,82.400 197.054,82.400 197.397 C 82.400 197.740,81.950 198.191,81.400 198.400 C 80.850 198.609,80.400 199.059,80.400 199.400 C 80.400 199.741,79.950 200.191,79.400 200.400 C 78.850 200.609,78.400 201.059,78.400 201.400 C 78.400 201.741,77.950 202.191,77.400 202.400 C 76.850 202.609,76.400 203.059,76.400 203.400 C 76.400 203.741,75.950 204.191,75.400 204.400 C 74.850 204.609,74.400 205.059,74.400 205.400 C 74.400 205.741,73.950 206.191,73.400 206.400 C 72.850 206.609,72.400 207.055,72.400 207.390 C 72.400 210.711,53.653 192.970,53.302 189.317 C 53.124 187.469,53.070 187.397,51.859 187.399 C 50.839 187.400,50.575 187.220,50.466 186.454 C 50.277 185.115,51.149 184.317,51.468 185.538 C 51.950 187.381,55.392 187.893,55.127 186.081 C 54.974 185.044,55.048 184.975,56.134 185.134 C 57.232 185.295,57.295 185.232,57.134 184.134 C 56.973 183.037,57.037 182.973,58.134 183.134 C 59.232 183.295,59.295 183.232,59.134 182.134 C 58.973 181.037,59.037 180.973,60.134 181.134 C 61.232 181.295,61.295 181.232,61.134 180.134 C 60.973 179.037,61.037 178.973,62.134 179.134 C 63.232 179.295,63.295 179.232,63.134 178.134 C 62.977 177.061,63.052 176.975,64.025 177.118 C 64.857 177.240,65.138 177.081,65.321 176.381 C 65.948 173.981,67.977 175.379,77.093 184.495 M245.400 176.353 L 244.200 176.608 244.155 184.204 C 244.130 188.405,243.911 192.515,243.664 193.400 C 242.303 198.291,245.816 201.466,250.554 199.627 C 251.832 199.131,251.798 199.772,250.954 191.970 C 250.801 190.559,250.949 188.597,251.356 186.627 C 252.738 179.948,251.782 176.400,248.602 176.400 C 248.087 176.400,247.426 176.332,247.133 176.249 C 246.840 176.165,246.060 176.212,245.400 176.353 M268.800 176.360 C 265.196 177.516,262.068 179.878,259.741 183.200 L 258.200 185.400 258.200 189.600 C 258.200 194.965,259.046 196.443,263.400 198.686 L 266.200 200.128 271.600 200.125 C 279.589 200.120,283.961 198.112,284.994 193.972 C 285.562 191.694,281.094 189.916,279.897 191.944 C 276.259 198.101,266.821 197.572,265.994 191.164 C 265.299 185.785,266.668 181.418,269.360 180.427 C 272.958 179.102,276.105 180.071,277.844 183.039 C 279.766 186.319,284.608 184.052,284.304 180.016 C 284.066 176.857,274.375 174.572,268.800 176.360 M334.212 176.275 C 322.954 179.387,320.233 193.994,329.973 199.035 C 336.614 202.473,350.400 199.018,350.400 193.916 C 350.400 192.622,350.201 192.267,349.100 191.596 C 347.170 190.419,346.657 190.587,344.844 192.988 C 341.126 197.913,333.143 197.367,332.159 192.121 C 331.773 190.064,332.428 189.602,335.749 189.590 C 348.414 189.546,355.435 182.555,347.996 177.396 C 346.286 176.211,337.136 175.466,334.212 176.275 M249.084 177.536 C 249.478 177.941,250.115 178.385,250.500 178.523 C 251.062 178.725,251.200 179.253,251.200 181.202 C 251.200 182.839,250.972 183.976,250.500 184.696 C 249.635 186.016,249.455 195.615,250.280 196.440 C 251.118 197.278,249.825 199.200,248.422 199.200 C 244.941 199.200,244.244 197.769,244.823 191.800 C 245.331 186.556,245.348 185.341,244.982 180.500 L 244.702 176.800 246.535 176.800 C 247.790 176.800,248.595 177.032,249.084 177.536 M280.400 177.137 C 280.400 177.322,281.019 177.808,281.776 178.215 C 284.862 179.877,283.499 183.600,279.806 183.600 C 279.093 183.600,278.802 183.320,278.611 182.450 C 277.783 178.680,269.168 177.768,266.507 181.169 C 264.184 184.137,264.510 193.078,267.028 195.452 C 268.952 197.267,278.400 197.453,278.400 195.676 C 278.400 194.646,281.437 192.147,282.400 192.385 C 284.779 192.972,282.944 197.597,280.331 197.601 C 279.819 197.602,278.770 197.989,278.000 198.460 C 276.114 199.614,266.861 199.742,265.633 198.630 C 265.227 198.262,264.243 197.782,263.446 197.562 C 260.721 196.809,258.800 193.534,258.800 189.641 C 258.800 187.780,258.981 186.335,259.233 186.180 C 259.471 186.032,259.994 185.167,260.395 184.256 C 260.796 183.345,261.601 182.150,262.184 181.600 C 262.766 181.050,263.638 180.230,264.122 179.779 C 264.605 179.327,265.744 178.741,266.653 178.477 C 267.561 178.213,268.528 177.727,268.802 177.398 C 269.353 176.733,280.400 176.485,280.400 177.137 M346.473 177.800 C 347.127 178.350,347.985 178.800,348.381 178.800 C 348.866 178.800,349.181 179.206,349.350 180.050 C 349.919 182.896,349.413 185.600,348.312 185.600 C 348.059 185.600,347.459 185.969,346.980 186.419 C 345.995 187.344,341.435 187.981,335.709 187.993 C 331.657 188.002,330.931 188.670,331.329 192.026 C 332.101 198.548,342.013 199.116,346.460 192.894 C 347.314 191.700,349.600 192.433,349.600 193.901 C 349.600 195.172,347.126 197.599,345.827 197.601 C 345.372 197.602,344.370 197.991,343.600 198.466 C 341.515 199.750,333.088 199.745,331.281 198.457 C 330.618 197.986,329.834 197.599,329.538 197.598 C 328.724 197.595,326.400 195.258,326.400 194.442 C 326.400 194.047,326.040 193.398,325.600 193.000 C 324.932 192.396,324.800 191.768,324.800 189.200 C 324.800 186.632,324.932 186.004,325.600 185.400 C 326.040 185.002,326.400 184.327,326.400 183.901 C 326.400 182.618,330.315 178.928,332.252 178.385 C 333.185 178.124,334.045 177.661,334.162 177.355 C 334.599 176.215,345.038 176.592,346.473 177.800 M336.255 178.711 C 336.125 178.922,335.324 179.206,334.476 179.341 C 332.411 179.672,331.678 180.598,331.363 183.275 C 330.975 186.574,331.699 186.958,337.864 186.722 C 343.984 186.488,346.147 184.493,344.284 180.800 C 343.576 179.398,336.904 177.661,336.255 178.711 M342.606 180.567 C 346.123 182.872,343.110 185.606,336.710 185.917 L 332.820 186.106 332.381 184.953 C 331.461 182.542,332.756 180.607,335.800 179.844 C 337.220 179.489,341.683 179.963,342.606 180.567 M73.600 209.424 C 73.600 209.741,73.439 210.000,73.243 210.000 C 72.801 210.000,72.371 208.962,72.683 208.650 C 73.033 208.300,73.600 208.778,73.600 209.424 M75.730 210.663 C 76.154 211.088,75.195 211.973,74.571 211.733 C 73.745 211.417,73.869 210.400,74.733 210.400 C 75.137 210.400,75.585 210.518,75.730 210.663 " stroke="none" fill="#7c7c7c" fill-rule="evenodd"></path></g></svg>